<svg height="512pt" viewBox="0 0 512 512" width="512pt" xmlns="http://www.w3.org/2000/svg"><path d="m512 240h-48.816406c-7.96875-102.105469-89.078125-183.214844-191.183594-191.183594v-48.816406h-32v48.816406c-102.105469 7.96875-183.214844 89.078125-191.183594 191.183594h-48.816406v32h48.816406c7.96875 102.105469 89.078125 183.214844 191.183594 191.183594v48.816406h32v-48.816406c102.105469-7.96875 183.214844-89.078125 191.183594-191.183594h48.816406zm-240 191.183594v-47.183594h-32v47.183594c-84.464844-7.8125-151.371094-74.71875-159.183594-159.183594h47.183594v-32h-47.183594c7.8125-84.464844 74.71875-151.371094 159.183594-159.183594v47.183594h32v-47.183594c84.464844 7.8125 151.371094 74.71875 159.183594 159.183594h-47.183594v32h47.183594c-7.8125 84.464844-74.71875 151.371094-159.183594 159.183594zm0 0"/></svg>